<svg id="Layer_1" xmlns="http://www.w3.org/2000/svg" viewBox="-295 387 20 20"><style>.st0{fill:#2c2c2c}</style><title>SP_x2_FilteringLayerSearch_Xs_N_D</title><g id="Page-1"><g id="SP_x2_FilteringLayerSearch_Xs_N_D"><path id="Fill-2" class="st0" d="M-294.3 403.4s-1.4 1.4 0 3c1.3 1.4 2.9 0 2.9 0l4.8-4.5s2.2.9 3.7.9c4.4 0 7.9-3.5 7.9-7.9 0-4.3-3.5-7.9-7.9-7.9s-7.9 3.5-7.9 7.9c0 1.4.3 2.6.9 3.7l-4.4 4.8zm5.8-8.5c0-3.1 2.5-5.7 5.7-5.7 3.1 0 5.7 2.5 5.7 5.7 0 3.1-2.5 5.7-5.7 5.7-3.1 0-5.7-2.6-5.7-5.7z"/></g></g></svg>