<svg id="S_TeamProProduction_46x34_N_D_2x" data-name="S_TeamProProduction_46x34_N_D@2x" xmlns="http://www.w3.org/2000/svg" width="92" height="68" viewBox="0 0 92 68">
  <defs>
    <style>
      .fill {
        fill: #fff;
        fill-rule: evenodd;
        opacity: 0.65;
      }

      
    </style>
  </defs>
  <title>S_TeamProProduction_46x34_N_D@2x</title>
  <path class="fill" d="M78,8V48H14V8Zm2-4H12a2,2,0,0,0-2,2V50a2,2,0,0,0,2,2H80a2,2,0,0,0,2-2V6A2,2,0,0,0,80,4Z"/>
  <path class="fill" d="M66,61H56a3,3,0,0,1-3-3V54H37v4a3.009,3.009,0,0,1-3,3H24a1,1,0,0,0-1,1v3a1,1,0,0,0,1,1H66a1,1,0,0,0,1-1V62A1,1,0,0,0,66,61Z"/>
  <path class="fill" d="M42.8,17.45a12.2,12.2,0,0,1,2.18,1.14,10.227,10.227,0,0,1,6.45-2.29,10.516,10.516,0,0,1,0,21.03,10.252,10.252,0,0,1-7.33-3.09l-6.05-6.16a1.12,1.12,0,0,0-1.61-.02,1.174,1.174,0,0,0-.02,1.64l6.08,6.19a12.019,12.019,0,0,0,8.79,3.59,12.745,12.745,0,0,0,.14-25.49A12.466,12.466,0,0,0,42.8,17.45Z"/>
  <path class="fill" d="M27.94,29.11A10.29,10.29,0,0,0,38.16,39.48H43.5a13.585,13.585,0,0,1-2.81-1.96H38.16a8,8,0,0,1-7.94-8.06,8.162,8.162,0,0,1,7.94-8.24,7.45,7.45,0,0,1,5.21,1.98l4.59,4.79a1.132,1.132,0,0,0,1.62.02,1.174,1.174,0,0,0,.02-1.64L45,21.58a9.551,9.551,0,0,0-6.85-2.67A10.282,10.282,0,0,0,27.94,29.28Z"/>
  <path class="fill" d="M49,43.5H40a17.741,17.741,0,0,1-7.807-1.541,10.035,10.035,0,0,1-3.439-2.6l-.26-.265a14,14,0,0,1,0-19.61A13.539,13.539,0,0,1,32.844,16.5a13.327,13.327,0,0,1,5.316-1.09,13.811,13.811,0,0,1,1.681.1,16.168,16.168,0,0,1,4.887-3.533A15.922,15.922,0,0,1,62.8,15.289a16.372,16.372,0,0,1,3.445,5.187h0A15.952,15.952,0,0,1,67.5,26.71a17.015,17.015,0,0,1-1.258,6.472c-.742,1.767-2.711,6.455-7.3,8.6C57.572,42.424,54.459,43.5,49,43.5ZM38.16,16.41a12.332,12.332,0,0,0-4.922,1.009,12.539,12.539,0,0,0-4.032,2.762,13,13,0,0,0,0,18.21l.26.265a9.007,9.007,0,0,0,3.12,2.384A16.839,16.839,0,0,0,40,42.5h9c5.462,0,8.476-1.135,9.518-1.623,4.24-1.983,6.1-6.413,6.8-8.081A16,16,0,0,0,66.5,26.71a14.974,14.974,0,0,0-1.182-5.847,15.369,15.369,0,0,0-3.234-4.872,14.922,14.922,0,0,0-16.933-3.108,15.2,15.2,0,0,0-4.753,3.5.483.483,0,0,1-.439.156A12.62,12.62,0,0,0,38.16,16.41Z"/>
  </svg>