<?xml version="1.0" encoding="utf-8"?>
<svg version="1.1" xmlns="http://www.w3.org/2000/svg" xmlns:xlink="http://www.w3.org/1999/xlink" x="0px" y="0px"
	 width="10px" height="10px" viewBox="0 0 10 10" style="enable-background:new 0 0 10 10;" xml:space="preserve">
<path style="opacity:0.7;fill:#FFFFFF;enable-background:new;" d="M5,10
	c-0.383423,0.000259-0.765503-0.04335-1.139038-0.129997L9.869995,3.861C9.956665,4.234459,10.000244,4.616615,10,5
	c0,0.113991-0.003662,0.227333-0.010986,0.339996L5.339966,9.988998C5.227417,9.996338,5.114014,10,5,10z M2.811035,9.5
	C2.464111,9.33046,2.137939,9.121407,1.838989,8.876999l7.035034-7.035004c0.244507,0.299202,0.453613,0.62571,0.623047,0.973
	L2.812012,9.499992L2.811035,9.5z M7.328003,9.43L7.328003,9.43l2.099976-2.099998
	c-0.471802,0.895042-1.203979,1.6259-2.099976,2.096001V9.43z M1.128052,8.165001L1.128052,8.165001
	c-0.244019-0.298965-0.452759-0.62513-0.621948-0.972l6.685059-6.685005C7.538452,0.677429,7.86499,0.88649,8.164185,1.130997
	L1.130127,8.164993L1.128052,8.165001z M0.128052,6.140999L0.128052,6.140999C0.041992,5.7668-0.000977,5.383972,0,5
	c0-0.113991,0.003662-0.226997,0.010986-0.338997l4.649048-4.648994C4.771973,0.004684,4.88501,0.001007,4.999023,0.001007
	C5.38208,0.000885,5.763794,0.044495,6.136963,0.131012L0.130981,6.137009L0.128052,6.140999z M0.574097,2.676003L0.574097,2.676003
	C1.044922,1.779251,1.777344,1.04686,2.674072,0.576004L0.574097,2.676003z"/>
<path style="opacity:0.4;enable-background:new;" d="M10,5.327972
	C9.956055,6.014984,9.770264,6.685425,9.454102,7.296967L7.298096,9.452972c-0.611572,0.31604-1.281982,0.501923-1.968994,0.54599
	L10,5.327972z M2.800049,9.506958l6.706055-6.705994c0.165283,0.332336,0.292725,0.68219,0.379883,1.042999L3.843994,9.886963
	c-0.36084-0.087067-0.710693-0.214539-1.042969-0.379974L2.800049,9.506958z M1.118164,8.168945l7.050049-7.049988
	c0.260498,0.212891,0.499023,0.451416,0.711914,0.712006L1.830078,8.880951C1.569824,8.667358,1.331543,8.428192,1.119141,8.166992
	L1.118164,8.168945z M0.112061,6.155945l6.041992-6.042999C6.515137,0.200043,6.865479,0.327515,7.197998,0.49295L0.490967,7.199951
	c-0.164795-0.333099-0.291504-0.683624-0.37793-1.044983L0.112061,6.155945z M0.546143,2.702942l2.156006-2.154999
	c0.611816-0.31662,1.282471-0.502563,1.969971-0.54599L0,4.67395c0.043457-0.688171,0.22998-1.359741,0.547119-1.971985
	L0.546143,2.702942z"/>
</svg>
