<svg id="Layer_1" data-name="Layer 1" xmlns="http://www.w3.org/2000/svg" viewBox="0 0 149.89 98.04">
  <defs>
    <style>
      .cls-1 {
        fill: #b3b3b3;
      }
    </style>
  </defs>
  <title>search-no-results2</title>
  <path class="cls-1" d="M55.28,67.43A23.74,23.74,0,1,0,35.75,57.16L19.5,73.4a4.75,4.75,0,1,0,6.72,6.72h0L42.54,63.8l0-.05A23.58,23.58,0,0,0,55.28,67.43Zm0-44.43A20.72,20.72,0,1,1,34.57,43.72,20.72,20.72,0,0,1,55.28,23ZM24.1,78a1.75,1.75,0,1,1-2.48-2.48h0l16-16A23.91,23.91,0,0,0,40.14,62Z" transform="translate(-18.11 -19.96)"/>
  <path class="cls-1" d="M46.67,52.33a1.5,1.5,0,0,0,2.12,0h0l6.71-6.71,6.71,6.71a1.5,1.5,0,0,0,2.12-2.12L57.62,43.5l6.71-6.71a1.5,1.5,0,0,0-2.12-2.12L55.5,41.38l-6.71-6.71a1.5,1.5,0,0,0-2.12,2.12l6.71,6.71-6.71,6.71A1.5,1.5,0,0,0,46.67,52.33Z" transform="translate(-18.11 -19.96)"/>
  <path class="cls-1" d="M164.5,42H83.74a1.5,1.5,0,0,0,0,3H164.5a.5.5,0,0,1,.5.5v69a.51.51,0,0,1-.5.5h-1.09L137.84,89a4.94,4.94,0,0,0-3.5-1.43h0A4.94,4.94,0,0,0,130.82,89l-9.7,10.26L99.39,77.37a4.16,4.16,0,0,0-3-1.25h0a4.16,4.16,0,0,0-3,1.23L57,113.28V72.54a1.5,1.5,0,0,0-3,0v42a3.5,3.5,0,0,0,3.5,3.5h107a3.5,3.5,0,0,0,3.5-3.5v-69A3.5,3.5,0,0,0,164.5,42ZM132.26,90.43a2.92,2.92,0,0,1,2.07-.83h0a2.93,2.93,0,0,1,2.08.84L160.6,115H136.69l-14.15-14.28ZM94.85,78.77a2.18,2.18,0,0,1,1.56-.65h0a2.18,2.18,0,0,1,1.56.66L133.87,115H58.11Z" transform="translate(-18.11 -19.96)"/>
  <path class="cls-1" d="M144.4,74.62h0a10.11,10.11,0,0,0,7.22-3A10.34,10.34,0,0,0,144.44,54h0a10.11,10.11,0,0,0-7.22,3,10.34,10.34,0,0,0,7.2,17.63ZM138.62,58.4a8.13,8.13,0,0,1,5.8-2.43h0a8.34,8.34,0,0,1,5.78,14.22,8.12,8.12,0,0,1-5.8,2.42h0a8.34,8.34,0,0,1-5.78-14.22Z" transform="translate(-18.11 -19.96)"/>
</svg>
