<svg id="Layer_1" data-name="Layer 1" xmlns="http://www.w3.org/2000/svg" viewBox="0 0 141.78 105.5">
  <defs>
    <style>
      .cls-1 {
        fill: #b3b3b3;
      }
    </style>
  </defs>
  <title>search-no-connection2</title>
  <path class="cls-1" d="M56.37,82H24.86a4.09,4.09,0,0,1-3.55-6.14L37.07,48.55h0a4.05,4.05,0,0,1,3.55-2h0a4.05,4.05,0,0,1,3.55,2L59.92,75.86A4.09,4.09,0,0,1,56.37,82ZM39.67,50,23.91,77.36A1.09,1.09,0,0,0,24.86,79H56.37a1.09,1.09,0,0,0,.95-1.64L41.56,50a1.07,1.07,0,0,0-.95-.55h0A1.08,1.08,0,0,0,39.67,50Z" transform="translate(-20.76 -20.5)"/>
  <path class="cls-1" d="M40.5,69A1.5,1.5,0,0,1,39,67.5v-7a1.5,1.5,0,0,1,3,0v7A1.5,1.5,0,0,1,40.5,69Z" transform="translate(-20.76 -20.5)"/>
  <circle class="cls-1" cx="19.74" cy="53" r="1.9"/>
  <path class="cls-1" d="M119.75,86.41a1.5,1.5,0,0,1-1.06-2.56,26.43,26.43,0,0,0,0-37.37,1.5,1.5,0,0,1,2.12-2.12,29.43,29.43,0,0,1,0,41.61h0A1.5,1.5,0,0,1,119.75,86.41Z" transform="translate(-20.76 -20.5)"/>
  <path class="cls-1" d="M80.25,86.41A1.5,1.5,0,0,1,79.19,86a29.43,29.43,0,0,1,0-41.61h0a1.5,1.5,0,0,1,2.12,2.12,26.43,26.43,0,0,0,0,37.37,1.5,1.5,0,0,1-1.06,2.56Z" transform="translate(-20.76 -20.5)"/>
  <path class="cls-1" d="M131.23,97.89a1.5,1.5,0,0,1-1.06-2.56,42.66,42.66,0,0,0,0-60.33h0a1.5,1.5,0,0,1,2.12-2.12,45.66,45.66,0,0,1,0,64.57h0A1.5,1.5,0,0,1,131.23,97.89Z" transform="translate(-20.76 -20.5)"/>
  <path class="cls-1" d="M68.77,97.89a1.5,1.5,0,0,1-1.06-.44,45.69,45.69,0,0,1-6.92-8.88A1.5,1.5,0,1,1,63.37,87h0a42.71,42.71,0,0,0,6.46,8.29,1.5,1.5,0,0,1-1.06,2.56Z" transform="translate(-20.76 -20.5)"/>
  <path class="cls-1" d="M56.3,60.28l-.22,0a1.5,1.5,0,0,1-1.27-1.7A46,46,0,0,1,67.71,32.88,1.5,1.5,0,1,1,69.83,35a43,43,0,0,0-12,24A1.5,1.5,0,0,1,56.3,60.28Z" transform="translate(-20.76 -20.5)"/>
  <path class="cls-1" d="M143.17,109.83a1.5,1.5,0,0,1-1.06-2.56,59.55,59.55,0,0,0,0-84.21,1.5,1.5,0,0,1,2.12-2.12h0a62.55,62.55,0,0,1,0,88.45h0A1.5,1.5,0,0,1,143.17,109.83Z" transform="translate(-20.76 -20.5)"/>
  <path class="cls-1" d="M56.83,109.83a1.5,1.5,0,0,1-1.06-.44,62.31,62.31,0,0,1-12.9-18.76,1.5,1.5,0,1,1,2.74-1.23h0a59.34,59.34,0,0,0,12.28,17.86,1.5,1.5,0,0,1-1.06,2.56Z" transform="translate(-20.76 -20.5)"/>
  <path class="cls-1" d="M44.25,41.8a1.5,1.5,0,0,1-1.37-2.11,62.31,62.31,0,0,1,12.9-18.75,1.5,1.5,0,1,1,2.13,2.12h0A59.31,59.31,0,0,0,45.62,40.91,1.5,1.5,0,0,1,44.25,41.8Z" transform="translate(-20.76 -20.5)"/>
  <path class="cls-1" d="M99.5,126a1.5,1.5,0,0,1-1.5-1.5v-60a1.5,1.5,0,0,1,3,0v60A1.5,1.5,0,0,1,99.5,126Z" transform="translate(-20.76 -20.5)"/>
</svg>
