<svg id="Layer_1" data-name="Layer 1" xmlns="http://www.w3.org/2000/svg" viewBox="0 0 137.89 92.04">
  <defs>
    <style>
      .cls-1 {
        fill: #b3b3b3;
      }
    </style>
  </defs>
  <title>search-error</title>
  <path class="cls-1" d="M151.5,44h-68a1.5,1.5,0,0,0,0,3h68a.5.5,0,0,1,.5.5V57H80a1,1,0,0,0,0,2h51v52H56.5a.5.5,0,0,1-.5-.5v-36a1.5,1.5,0,0,0-3,0v36a3.5,3.5,0,0,0,3.5,3.5h95a3.5,3.5,0,0,0,3.5-3.5v-63A3.5,3.5,0,0,0,151.5,44Zm0,67H133V59h19v51.5A.5.5,0,0,1,151.5,111Z" transform="translate(-17.11 -21.96)"/>
  <path class="cls-1" d="M54.28,69.43A23.74,23.74,0,1,0,34.75,59.16L18.5,75.4a4.75,4.75,0,1,0,6.72,6.72L41.54,65.8l0-.05A23.58,23.58,0,0,0,54.28,69.43Zm0-44.43A20.72,20.72,0,1,1,33.57,45.72,20.72,20.72,0,0,1,54.28,25ZM23.1,80a1.75,1.75,0,1,1-2.48-2.48l16-16A23.91,23.91,0,0,0,39.14,64Z" transform="translate(-17.11 -21.96)"/>
  <path class="cls-1" d="M45.67,54.33a1.5,1.5,0,0,0,2.12,0h0l6.71-6.71,6.71,6.71a1.5,1.5,0,0,0,2.12-2.12L56.62,45.5l6.71-6.71a1.5,1.5,0,0,0-2.12-2.12L54.5,43.38l-6.71-6.71a1.5,1.5,0,0,0-2.12,2.12l6.71,6.71-6.71,6.71a1.5,1.5,0,0,0,0,2.12Z" transform="translate(-17.11 -21.96)"/>
</svg>
