<svg xmlns="http://www.w3.org/2000/svg" data-name="S_Refresh_24_N@2x" height="48" id="S_Refresh_24_N_2x" viewBox="0 0 48 48" width="48">
  <defs>
    <style>
      .cls-1 {
        fill: #707070;
      }

      
    </style>
  </defs>
  <title>S_Refresh_24_N@2x</title>
  <rect id="Canvas" fill="#ff13dc" opacity="0" width="48" height="48" /><path class="cls-1" d="M28.052,19.146,33.6,13.835a13.98,13.98,0,0,0-22.966,5.989l-5.728-1.79A19.969,19.969,0,0,1,37.931,9.689L43.146,4.7A.5.5,0,0,1,44,5.05V20H28.405A.5.5,0,0,1,28.052,19.146Z" />
  <path class="cls-1" d="M19.651,28a.5.5,0,0,1,.354.853l-5.626,5.294a13.982,13.982,0,0,0,22.987-5.971l5.728,1.79A19.974,19.974,0,0,1,10.01,38.258L4.854,43.11A.5.5,0,0,1,4,42.757V28Z" />
  </svg>