<svg id="content" data-name="Layer 1" xmlns="http://www.w3.org/2000/svg" viewBox="0 0 179.99 136.86"><title>ico-subscription-expired</title><path id="Path_13" data-name="Path 13" d="M58.75,136.86a58.75,58.75,0,1,1,0-117.51h0a47.87,47.87,0,0,1,5.19.28C78.25,6.17,94.23,0,111.76,0a68.4,68.4,0,0,1,11.08,135.88h0s-8.55,1-15.85,1Zm0-113.58a54.83,54.83,0,0,0,0,109.66H107a129,129,0,0,0,15.57-1A64.47,64.47,0,1,0,67.73,21.31L65.2,23.7a49.82,49.82,0,0,0-6.45-.42Zm.42,93.67a39.08,39.08,0,0,1-39-39v-.14A38.93,38.93,0,0,1,59,39a37,37,0,0,1,26.08,10l18.09,18.65a3,3,0,0,1-2.1,5.19,2.79,2.79,0,0,1-2.24-1L80.63,53.43A31.45,31.45,0,0,0,59,45.29a32.74,32.74,0,0,0,.14,65.49h9.4a59.37,59.37,0,0,0,7.15,6.17Zm52.3,0a48.16,48.16,0,0,1-34.21-14.16S53.15,78.53,53,78.53a3.18,3.18,0,0,1-.84-2.24,3,3,0,0,1,1-2.1,2.85,2.85,0,0,1,2.1-.84,4,4,0,0,1,2.38,1l24,24A42.34,42.34,0,1,0,86,34.5c-2-1.12-3.93-2.24-5.89-3.23a48.46,48.46,0,0,1,65.77,71.09A47,47,0,0,1,111.48,117Z" transform="translate(0)" style="fill:#5c5c5c"/></svg>
