<svg id="content" data-name="Layer 1" xmlns="http://www.w3.org/2000/svg" viewBox="0 0 179.3 110.17"><title>ico-failed-load</title><g id="Group_8" data-name="Group 8"><path id="Path_13" data-name="Path 13" d="M13.93,33.11V4.44A3,3,0,0,1,16.87,1.5H175.49a3,3,0,0,1,2.94,2.94V105.73a3,3,0,0,1-2.94,2.94H16.87a3,3,0,0,1-2.94-2.94V74.27" transform="translate(-0.64)" style="fill:none;stroke:#5c5c5c;stroke-linecap:round;stroke-linejoin:round;stroke-width:3px"/><path id="Path_14" data-name="Path 14" d="M146.68,46.93a14,14,0,1,0-13.82-14.11s0,.1,0,.15a13.84,13.84,0,0,0,13.7,14Z" transform="translate(-0.64)" style="fill:none;stroke:#5c5c5c;stroke-linecap:round;stroke-linejoin:round;stroke-width:2px"/><path id="Path_15" data-name="Path 15" d="M111.84,87.65l15.58-16.47a6.13,6.13,0,0,1,8.38,0L172,108.08" transform="translate(-0.64)" style="fill:none;stroke:#5c5c5c;stroke-linecap:round;stroke-linejoin:round;stroke-width:2px"/><path id="Path_16" data-name="Path 16" d="M16.13,108.08,71.26,53.69a4.7,4.7,0,0,1,6.65-.12l.12.12,54.39,55" transform="translate(-0.64)" style="fill:none;stroke:#5c5c5c;stroke-linecap:round;stroke-linejoin:round;stroke-width:2px"/><line id="Line_4" data-name="Line 4" x1="1.54" y1="66.11" x2="25.04" y2="42.61" style="fill:none;stroke:#5c5c5c;stroke-linecap:round;stroke-linejoin:round;stroke-width:3.075000047683716px"/><line id="Line_5" data-name="Line 5" x1="25.04" y1="66.11" x2="1.54" y2="42.61" style="fill:none;stroke:#5c5c5c;stroke-linecap:round;stroke-linejoin:round;stroke-width:3.075000047683716px"/></g></svg>
