<svg id="content" width="184" height="100" viewBox="0 0 184 100" version="1.1" xmlns="http://www.w3.org/2000/svg" xmlns:xlink="http://www.w3.org/1999/xlink" xml:space="preserve" style="fill-rule:evenodd;clip-rule:evenodd;stroke-linejoin:round;stroke-miterlimit:1.41421;">
  <path d="M48,22L49,22C49.549,22 50,21.549 50,21L50,17.5C50,17.226 50.226,17 50.5,17L138.5,17C138.774,17 139,17.226 139,17.5L139,21C139,21.549 139.451,22 140,22L141,22C141.549,22 142,21.549 142,21L142,17.5C142,15.58 140.42,14 138.5,14L50.5,14C48.58,14 47,15.58 47,17.5L47,21C47,21.549 47.451,22 48,22Z" style="fill-rule:nonzero;"/>
  <path d="M58,12L59,12C59.549,12 60,11.549 60,11L60,8.5C60,8.226 60.226,8 60.5,8L128.5,8C128.774,8 129,8.226 129,8.5L129,11C129,11.549 129.451,12 130,12L131,12C131.549,12 132,11.549 132,11L132,8.5C132,6.58 130.42,5 128.5,5L60.5,5C58.58,5 57,6.58 57,8.5L57,11C57,11.549 57.451,12 58,12Z" style="fill-rule:nonzero;"/>
  <path d="M148.5,24L40.5,24C38.58,24 37,25.58 37,27.5L37,44C37,44.549 37.451,45 38,45L39,45C39.549,45 40,44.549 40,44L40,27.5C40,27.226 40.226,27 40.5,27L148.5,27C148.774,27 149,27.226 149,27.5L149,95.909L125.646,72.109C123.483,69.978 119.958,69.983 117.801,72.12L107.209,83.331C107.017,83.545 106.892,83.811 106.851,84.096L83.2,60.212C82.311,59.304 81.093,58.792 79.822,58.793C78.559,58.797 77.346,59.298 76.448,60.187L40,96.125L40,79C40,78.451 39.549,78 39,78L38,78C37.451,78 37,78.451 37,79L37,96.5C37,98.42 38.58,100 40.5,100L148.5,100C150.42,100 152,98.42 152,96.5L152,27.5C152,25.58 150.42,24 148.5,24ZM43.384,97L78.561,62.416C78.901,62.112 79.352,61.961 79.807,62C80.264,61.962 80.717,62.116 81.057,62.424L115.409,97L43.384,97ZM119.632,97L108.553,85.814C108.871,85.769 109.165,85.621 109.39,85.392L119.957,74.208C120.439,73.759 121.073,73.509 121.732,73.508C122.394,73.5 123.033,73.755 123.508,74.217L145.867,97L119.632,97Z" style="fill-rule:nonzero;"/>
  <path d="M129.049,58C131.937,58.047 134.725,56.928 136.775,54.9C138.84,52.823 140,50.015 140,47.091C140,41.082 135.1,36.109 129.071,36L129.048,36C129.044,36 129.041,36 129.037,36C122.982,36 118,40.966 118,47C118,53.03 122.976,57.994 129.027,58L129.049,58ZM121.106,47.2C121.103,45.048 121.946,42.978 123.453,41.437C124.917,39.915 126.932,39.037 129.047,39L129.065,39C133.517,39.009 137.176,42.663 137.176,47.1C137.176,51.544 133.507,55.2 129.048,55.2C129.043,55.2 129.037,55.2 129.032,55.2C124.656,55.172 121.078,51.561 121.106,47.2L121.106,47.2Z" style="fill-rule:nonzero;"/>
  <path d="M38.5,48C31.094,48 25,54.094 25,61.5C25,68.906 31.094,75 38.5,75C45.906,75 52,68.906 52,61.5C52,54.094 45.906,48 38.5,48Z" style="fill:#1473E6;fill-rule:nonzero;"/>
  <path d="M46,63L40,63L40,69C40,69.549 39.549,70 39,70L38,70C37.451,70 37,69.549 37,69L37,63L31,63C30.451,63 30,62.549 30,62L30,61C30,60.451 30.451,60 31,60L37,60L37,54C37,53.451 37.451,53 38,53L39,53C39.549,53 40,53.451 40,54L40,60L46,60C46.549,60 47,60.451 47,61L47,62C47,62.549 46.549,63 46,63Z" style="fill:#E1E1E1;fill-rule:nonzero;"/>
</svg>
