<svg id="content" class="glyph" width="184" height="100" viewBox="0 0 184 100" version="1.1" xmlns="http://www.w3.org/2000/svg" xmlns:xlink="http://www.w3.org/1999/xlink" xml:space="preserve" style="fill-rule:evenodd;clip-rule:evenodd;stroke-linejoin:round;stroke-miterlimit:1.41421;">
  <path d="M37.169,55.053C37.179,55.053 37.19,55.053 37.2,55.053C50.227,55.053 60.947,44.433 60.947,31.526C60.947,18.62 50.227,8 37.2,8C24.173,8 13.453,18.62 13.453,31.526C13.453,36.29 14.913,40.943 17.64,44.867L1.388,60.964C0.497,61.847 -0.004,63.045 -0.004,64.293C-0.004,66.875 2.141,69 4.747,69C6.006,69 7.215,68.504 8.106,67.622L24.43,51.453C24.449,51.435 24.455,51.41 24.472,51.39C28.264,53.786 32.671,55.057 37.169,55.053ZM37.169,11.033C48.533,11.033 57.885,20.297 57.885,31.556C57.885,42.815 48.533,52.08 37.169,52.08C25.805,52.08 16.453,42.815 16.453,31.556C16.466,20.302 25.81,11.046 37.169,11.033L37.169,11.033ZM5.985,65.522C5.297,66.173 4.198,66.173 3.51,65.522C2.833,64.848 2.833,63.743 3.51,63.07L19.51,47.218C20.29,48.081 21.132,48.885 22.03,49.626L5.985,65.522Z" style="fill-rule:nonzero;"/>
  <path d="M28.424,39.576C28.989,40.141 29.92,40.141 30.486,39.576L37.007,33.054L43.529,39.576C43.8,39.838 44.164,39.985 44.542,39.985C45.342,39.985 46,39.327 46,38.527C46,38.149 45.853,37.786 45.591,37.514L39.069,30.994L45.591,24.472C45.853,24.201 46,23.837 46,23.459C46,22.659 45.342,22.001 44.542,22.001C44.164,22.001 43.8,22.148 43.529,22.41L37.007,28.932L30.486,22.409C30.214,22.147 29.85,22 29.473,22C28.673,22 28.014,22.658 28.014,23.458C28.014,23.836 28.161,24.2 28.424,24.471L34.944,30.994L28.423,37.516C27.859,38.081 27.859,39.011 28.424,39.576Z" style="fill-rule:nonzero;"/>
  <path d="M126.05,58C128.938,58.047 131.726,56.928 133.775,54.9C135.84,52.823 137,50.015 137,47.091C137,41.081 132.099,36.107 126.069,36L126.046,36C126.043,36 126.039,36 126.036,36C119.982,36 115,40.966 115,47C115,53.03 119.975,57.994 126.025,58L126.05,58ZM118.109,47.2C118.105,45.047 118.949,42.975 120.458,41.434C121.922,39.913 123.937,39.036 126.051,39L126.069,39C130.521,39.009 134.179,42.663 134.179,47.1C134.179,51.544 130.511,55.2 126.053,55.2C126.047,55.2 126.042,55.2 126.036,55.2C121.679,55.174 118.108,51.593 118.108,47.25C118.108,47.232 118.108,47.215 118.109,47.197L118.109,47.2Z" style="fill-rule:nonzero;"/>
  <path d="M146.5,24L64,24C63.451,24 63,24.451 63,25L63,26C63,26.549 63.451,27 64,27L146.5,27C146.774,27 147,27.226 147,27.5L147,95.909L123.646,72.109C121.483,69.978 117.958,69.983 115.801,72.12L105.214,83.331C105.022,83.545 104.897,83.811 104.856,84.096L81.195,60.212C80.305,59.303 79.086,58.791 77.814,58.793C76.551,58.797 75.338,59.298 74.44,60.187L38,96.124L38,59C38,58.451 37.549,58 37,58L36,58C35.451,58 35,58.451 35,59L35,96.5C35,98.42 36.58,100 38.5,100L146.5,100C148.42,100 150,98.42 150,96.5L150,27.5C150,25.58 148.42,24 146.5,24ZM41.384,97L76.56,62.416C76.9,62.112 77.351,61.961 77.806,62C78.263,61.962 78.716,62.116 79.056,62.424L113.404,97L41.384,97ZM117.632,97L106.552,85.814C106.87,85.769 107.164,85.621 107.389,85.392L117.955,74.208C118.437,73.759 119.071,73.509 119.73,73.508C120.392,73.5 121.031,73.755 121.506,74.217L143.865,97.004L117.632,97Z" style="fill-rule:nonzero;"/>
</svg>
